<svg width="198" height="565" viewBox="0 0 198 565" fill="none" xmlns="http://www.w3.org/2000/svg">
<g filter="url(#filter0_dd_8_896)">
<g clip-path="url(#clip0_8_896)">
<rect x="-132" y="429" width="397" height="245.513" rx="16.7158" transform="rotate(-90 -132 429)" fill="white" fill-opacity="0.01" shape-rendering="crispEdges"/>
<rect width="397" height="245.513" transform="translate(-132 429) rotate(-90)" fill="#EE79AA"/>
<g clip-path="url(#clip1_8_896)">
<path opacity="0.942196" d="M0.854972 274.15C0.854972 268.278 -3.90494 263.518 -9.77658 263.518C-15.6482 263.518 -20.4081 268.278 -20.4081 274.15C-20.4081 280.022 -15.6482 284.781 -9.77658 284.781C-3.90494 284.781 0.854973 280.022 0.854972 274.15Z" fill="white" fill-opacity="0.5"/>
<path opacity="0.897353" d="M23.2295 253.187C23.2295 247.368 18.5128 242.651 12.6944 242.651C6.87602 242.651 2.1593 247.368 2.1593 253.187C2.1593 259.005 6.87602 263.722 12.6944 263.722C18.5128 263.722 23.2295 259.005 23.2295 253.187Z" fill="white" fill-opacity="0.5"/>
<path opacity="0.828007" d="M42.744 232.872C42.744 227.136 38.0941 222.486 32.3581 222.486C26.6221 222.486 21.9722 227.136 21.9722 232.872C21.9722 238.608 26.6221 243.258 32.3581 243.258C38.0941 243.258 42.744 238.608 42.744 232.872Z" fill="white" fill-opacity="0.5"/>
<path opacity="0.721067" fill-rule="evenodd" clip-rule="evenodd" d="M-44.5402 213.72C-44.4576 211.083 -43.3519 208.582 -41.4572 206.745C-39.5626 204.909 -37.0277 203.882 -34.3893 203.882C-31.7508 203.882 -29.2159 204.909 -27.3213 206.745C-25.4267 208.582 -24.321 211.083 -24.2384 213.72C-24.2384 215.443 -22.9838 216.707 -21.5501 218.818C-18.0652 223.896 -12.5094 223.358 -12.2306 223.787C-11.9518 223.358 -6.38596 223.886 -2.92102 218.808C-1.46734 216.707 -0.222741 215.443 -0.222742 213.73C-0.22471 211.721 0.369242 209.757 1.48398 208.085C2.59873 206.414 4.18417 205.111 6.03974 204.34C7.89531 203.57 9.93762 203.368 11.9083 203.758C13.879 204.149 15.6896 205.116 17.1109 206.535C18.5322 207.955 19.5004 209.765 19.8931 211.735C20.2858 213.706 20.0852 215.748 19.3169 217.604C18.5485 219.461 17.2468 221.047 15.5765 222.164C13.9061 223.28 11.9422 223.876 9.93312 223.876C8.04134 223.876 6.84653 223.936 3.91926 225.439C1.29068 226.784 -2.06474 231.314 -2.06474 234.022C-2.06474 234.052 -2.0747 234.062 -2.08465 234.052C-2.08661 235.386 -2.35125 236.706 -2.86344 237.937C-3.37563 239.169 -4.12535 240.287 -5.0698 241.229C-6.97719 243.131 -9.56195 244.197 -12.2555 244.193C-13.5891 244.191 -14.9094 243.926 -16.1408 243.414C-17.3722 242.902 -18.4907 242.152 -19.4324 241.208C-21.3342 239.3 -22.4003 236.716 -22.3964 234.022L-22.3964 233.823C-22.5557 231.085 -25.8215 226.754 -28.3804 225.439C-31.3077 223.936 -32.5124 223.876 -34.3843 223.876C-37.0778 223.876 -39.661 222.806 -41.5656 220.902C-43.4702 218.997 -44.5402 216.414 -44.5402 213.72Z" fill="white"/>
</g>
<g filter="url(#filter1_d_8_896)">
<rect x="-48.421" y="386.166" width="55.3711" height="49.1026" rx="7.31316" transform="rotate(-90 -48.421 386.166)" fill="black" fill-opacity="0.3" shape-rendering="crispEdges"/>
</g>
<g clip-path="url(#clip2_8_896)">
<path d="M67.5449 94.6843L94.708 100.357L94.708 107.221L67.5449 101.548L67.5449 94.6843ZM85.3054 65.4317L85.3054 59.1632L74.858 61.4616L85.3054 65.4317ZM94.708 57.2723L90.6544 58.108L90.6544 67.0823L94.708 68.545L94.708 75.879L69.5299 65.3899C68.9381 65.1505 68.4322 64.7384 68.0781 64.2073C67.724 63.6762 67.5382 63.0507 67.5449 62.4124L67.5449 56.4574L94.708 50.8053L94.708 57.2723ZM85.3681 75.1268C91.0514 75.1477 94.708 80.1102 94.708 87.6845C94.6767 90.9232 94.0185 94.0261 93.2558 95.7186L87.2799 94.4127C88.0426 92.7306 89.056 90.6203 89.0038 86.995C88.9724 84.916 88.168 82.6907 86.3292 82.6698C85.1382 82.6594 84.2815 83.6101 82.9443 86.4204C81.6384 89.1472 79.4444 92.7829 75.5266 92.7411C70.188 92.6993 66.5001 87.6845 66.5001 80.549C66.5001 77.7595 67.0956 75.5343 67.7016 73.7896L73.4999 75.0537C72.474 77.2801 72.0559 79.7384 72.288 82.1788C72.5491 84.2683 73.5939 85.2085 74.5655 85.2399C77.7833 85.313 78.1803 75.0955 85.3785 75.1268L85.3681 75.1268ZM67.5449 105.132L94.708 116.666L94.708 124.188L73.0297 129.84C71.6925 130.205 71.2119 130.498 70.6477 131.543C69.5884 133.778 68.8094 136.136 68.3284 138.563L67.5449 138.396L67.5449 126.288C67.5449 124.741 68.5583 123.362 70.3134 123.007L86.0367 120.009L67.5449 112.602L67.5449 105.132Z" fill="white"/>
</g>
<path d="M84.5896 392.825L75.8695 395.832L75.8695 395.896C76.0647 395.882 76.3313 395.865 76.6694 395.846C77.0074 395.827 77.3693 395.81 77.7549 395.796C78.1406 395.782 78.5096 395.775 78.8619 395.775L84.5896 395.775L84.5896 397.331L74.1484 397.331L74.1484 394.925L82.4828 392.032L82.4828 391.989L74.1484 388.997L74.1484 386.597L84.5896 386.597L84.5896 388.233L78.7762 388.233C78.4572 388.233 78.112 388.228 77.7407 388.219C77.3693 388.204 77.017 388.19 76.6837 388.176C76.3504 388.157 76.0838 388.142 75.8838 388.133L75.8838 388.19L84.5896 391.311L84.5896 392.825ZM76.6837 382.132L84.5896 382.132L84.5896 383.81L76.6837 383.81L76.6837 382.132ZM73.6556 382.96C73.6556 382.703 73.7246 382.482 73.8627 382.296C74.0008 382.106 74.2388 382.011 74.5769 382.011C74.9101 382.011 75.1482 382.106 75.291 382.296C75.4291 382.482 75.4981 382.703 75.4981 382.96C75.4981 383.227 75.4291 383.453 75.291 383.639C75.1482 383.82 74.9101 383.91 74.5769 383.91C74.2388 383.91 74.0008 383.82 73.8627 383.639C73.7246 383.453 73.6556 383.227 73.6556 382.96ZM84.7324 376.331C84.7324 377.078 84.5872 377.726 84.2968 378.274C84.0064 378.821 83.5612 379.242 82.9613 379.538C82.3614 379.833 81.5996 379.98 80.6759 379.98C79.7142 379.98 78.9286 379.819 78.3191 379.495C77.7097 379.171 77.2598 378.723 76.9693 378.152C76.6789 377.576 76.5337 376.917 76.5337 376.174C76.5337 375.703 76.5813 375.276 76.6765 374.895C76.767 374.51 76.8789 374.184 77.0122 373.917L78.3548 374.417C78.2358 374.707 78.1358 375.005 78.0549 375.31C77.974 375.614 77.9335 375.907 77.9335 376.188C77.9335 376.65 78.0358 377.036 78.2406 377.345C78.4453 377.65 78.75 377.878 79.1547 378.031C79.5594 378.178 80.0617 378.252 80.6616 378.252C81.2425 378.252 81.7329 378.176 82.1328 378.024C82.528 377.871 82.828 377.645 83.0327 377.345C83.2327 377.045 83.3326 376.676 83.3326 376.238C83.3326 375.805 83.2803 375.417 83.1755 375.074C83.0708 374.731 82.9351 374.407 82.7685 374.103L84.2254 374.103C84.3968 374.403 84.5229 374.724 84.6039 375.067C84.6896 375.41 84.7324 375.831 84.7324 376.331ZM76.5337 368.937C76.5337 367.938 76.7551 367.183 77.1979 366.673C77.6407 366.159 78.331 365.902 79.269 365.902L84.5896 365.902L84.5896 367.095L83.4683 367.416L83.4683 367.473C83.754 367.697 83.9897 367.928 84.1754 368.166C84.3611 368.404 84.4991 368.68 84.5896 368.995C84.6848 369.304 84.7324 369.683 84.7324 370.13C84.7324 370.601 84.6467 371.023 84.4753 371.394C84.2992 371.766 84.0325 372.058 83.6755 372.273C83.3184 372.487 82.8661 372.594 82.3185 372.594C81.5044 372.594 80.8925 372.292 80.4831 371.687C80.0736 371.078 79.8475 370.159 79.8046 368.93L79.7546 367.559L79.3404 367.559C78.7929 367.559 78.4025 367.688 78.1692 367.945C77.9359 368.197 77.8192 368.554 77.8192 369.016C77.8192 369.411 77.8763 369.794 77.9906 370.166C78.1049 370.537 78.2453 370.899 78.412 371.251L77.2264 371.794C77.0217 371.408 76.8551 370.97 76.7265 370.48C76.598 369.985 76.5337 369.471 76.5337 368.937ZM80.8116 367.566L80.8473 368.587C80.8759 369.425 81.0187 370.013 81.2758 370.351C81.5329 370.69 81.8853 370.859 82.3328 370.859C82.7232 370.859 83.0089 370.742 83.1898 370.509C83.366 370.275 83.4541 369.968 83.4541 369.587C83.4541 369.006 83.2898 368.526 82.9613 368.145C82.628 367.759 82.14 367.566 81.4972 367.566L80.8116 367.566ZM76.5337 360.194C76.5337 359.489 76.6789 358.885 76.9693 358.38C77.2598 357.875 77.6716 357.487 78.2049 357.216C78.7381 356.945 79.3761 356.809 80.1189 356.809L81.0187 356.809L81.0187 362.087C81.7853 362.068 82.3757 361.863 82.7899 361.472C83.2041 361.077 83.4112 360.525 83.4112 359.816C83.4112 359.311 83.3636 358.859 83.2684 358.459C83.1684 358.054 83.0232 357.637 82.8327 357.209L84.1968 357.209C84.3825 357.604 84.5182 358.006 84.6039 358.416C84.6896 358.825 84.7324 359.316 84.7324 359.887C84.7324 360.663 84.5825 361.346 84.2825 361.937C83.9778 362.522 83.5255 362.982 82.9256 363.315C82.3257 363.644 81.5805 363.808 80.6902 363.808C79.8046 363.808 79.0524 363.658 78.4334 363.358C77.8145 363.058 77.3431 362.637 77.0193 362.094C76.6956 361.551 76.5337 360.918 76.5337 360.194ZM77.7978 360.194C77.7978 360.723 77.9692 361.151 78.312 361.48C78.6548 361.803 79.1571 361.994 79.8189 362.051L79.8189 358.451C79.4237 358.456 79.0738 358.523 78.7691 358.651C78.4644 358.775 78.2263 358.966 78.0549 359.223C77.8835 359.475 77.7978 359.799 77.7978 360.194ZM84.5896 353.022L84.5896 354.707L73.477 354.707L73.477 353.022L84.5896 353.022Z" fill="white"/>
<path d="M76.5337 347.314C76.5337 346.314 76.7551 345.559 77.1979 345.05C77.6407 344.536 78.331 344.279 79.269 344.279L84.5896 344.279L84.5896 345.471L83.4683 345.793L83.4683 345.85C83.754 346.074 83.9897 346.304 84.1754 346.543C84.3611 346.781 84.4991 347.057 84.5896 347.371C84.6848 347.68 84.7324 348.059 84.7324 348.506C84.7324 348.978 84.6467 349.399 84.4753 349.771C84.2992 350.142 84.0325 350.435 83.6755 350.649C83.3184 350.863 82.8661 350.97 82.3185 350.97C81.5044 350.97 80.8925 350.668 80.4831 350.063C80.0736 349.454 79.8475 348.535 79.8046 347.307L79.7546 345.935L79.3404 345.935C78.7929 345.935 78.4025 346.064 78.1692 346.321C77.9359 346.573 77.8192 346.931 77.8192 347.392C77.8192 347.788 77.8763 348.171 77.9906 348.542C78.1049 348.914 78.2453 349.275 78.412 349.628L77.2264 350.171C77.0217 349.785 76.8551 349.347 76.7265 348.856C76.598 348.361 76.5337 347.847 76.5337 347.314ZM80.8116 345.943L80.8473 346.964C80.8759 347.802 81.0187 348.39 81.2758 348.728C81.5329 349.066 81.8853 349.235 82.3328 349.235C82.7232 349.235 83.0089 349.118 83.1898 348.885C83.366 348.652 83.4541 348.345 83.4541 347.964C83.4541 347.383 83.2898 346.902 82.9613 346.521C82.628 346.135 82.14 345.943 81.4972 345.943L80.8116 345.943Z" fill="white" fill-opacity="0.999874"/>
<path d="M74.1483 337.54L74.1483 334.434C74.1483 333.086 74.3436 332.07 74.734 331.384C75.1244 330.698 75.7981 330.356 76.7551 330.356C77.155 330.356 77.5169 330.427 77.8406 330.57C78.1596 330.708 78.4239 330.91 78.6334 331.177C78.8381 331.444 78.9762 331.772 79.0476 332.162L79.119 332.162C79.1904 331.758 79.3166 331.398 79.4975 331.084C79.6784 330.765 79.9379 330.515 80.276 330.334C80.614 330.149 81.052 330.056 81.5901 330.056C82.2281 330.056 82.7708 330.208 83.2184 330.513C83.6659 330.813 84.0064 331.244 84.2397 331.805C84.4729 332.362 84.5896 333.024 84.5896 333.791L84.5896 337.54L74.1483 337.54ZM78.4548 335.826L78.4548 334.184C78.4548 333.408 78.3287 332.87 78.0763 332.57C77.824 332.27 77.455 332.12 76.9693 332.12C76.4742 332.12 76.1171 332.298 75.8981 332.655C75.6791 333.008 75.5696 333.569 75.5696 334.341L75.5696 335.826L78.4548 335.826ZM79.8403 335.826L83.1541 335.826L83.1541 334.019C83.1541 333.219 82.9994 332.658 82.6899 332.334C82.3804 332.01 81.9614 331.848 81.4329 331.848C81.1092 331.848 80.8283 331.922 80.5902 332.07C80.3522 332.212 80.1688 332.448 80.0403 332.777C79.907 333.105 79.8403 333.548 79.8403 334.105L79.8403 335.826Z" fill="white" fill-opacity="0.99558"/>
<path d="M76.5337 324.762C76.5337 323.762 76.7551 323.007 77.1979 322.498C77.6407 321.984 78.331 321.727 79.269 321.727L84.5896 321.727L84.5896 322.919L83.4683 323.241L83.4683 323.298C83.754 323.522 83.9897 323.752 84.1754 323.99C84.3611 324.229 84.4991 324.505 84.5896 324.819C84.6848 325.128 84.7324 325.507 84.7324 325.954C84.7324 326.426 84.6467 326.847 84.4753 327.219C84.2992 327.59 84.0325 327.883 83.6755 328.097C83.3184 328.311 82.8661 328.418 82.3185 328.418C81.5044 328.418 80.8925 328.116 80.4831 327.511C80.0736 326.902 79.8475 325.983 79.8046 324.755L79.7546 323.383L79.3404 323.383C78.7929 323.383 78.4025 323.512 78.1692 323.769C77.9359 324.021 77.8192 324.379 77.8192 324.84C77.8192 325.236 77.8763 325.619 77.9906 325.99C78.1049 326.362 78.2453 326.723 78.412 327.076L77.2264 327.618C77.0217 327.233 76.8551 326.795 76.7265 326.304C76.598 325.809 76.5337 325.295 76.5337 324.762ZM80.8116 323.391L80.8473 324.412C80.8759 325.25 81.0187 325.838 81.2758 326.176C81.5329 326.514 81.8853 326.683 82.3328 326.683C82.7232 326.683 83.0089 326.566 83.1898 326.333C83.366 326.1 83.4541 325.793 83.4541 325.412C83.4541 324.831 83.2898 324.35 82.9613 323.969C82.628 323.583 82.14 323.391 81.4972 323.391L80.8116 323.391Z" fill="white" fill-opacity="0.990496"/>
<path d="M84.5896 317.483L84.5896 319.168L73.477 319.168L73.477 317.483L84.5896 317.483Z" fill="white" fill-opacity="0.982823"/>
<path d="M84.5896 313.188L84.5896 314.874L73.477 314.874L73.477 313.188L84.5896 313.188Z" fill="white" fill-opacity="0.971946"/>
<path d="M76.5337 307.43C76.5337 306.726 76.6789 306.121 76.9693 305.616C77.2598 305.112 77.6716 304.724 78.2049 304.452C78.7381 304.181 79.3761 304.045 80.1189 304.045L81.0187 304.045L81.0187 309.323C81.7853 309.304 82.3757 309.099 82.7899 308.709C83.2041 308.314 83.4112 307.761 83.4112 307.052C83.4112 306.547 83.3636 306.095 83.2684 305.695C83.1684 305.29 83.0232 304.874 82.8327 304.445L84.1968 304.445C84.3825 304.84 84.5182 305.243 84.6039 305.652C84.6896 306.062 84.7324 306.552 84.7324 307.123C84.7324 307.899 84.5825 308.583 84.2825 309.173C83.9778 309.759 83.5255 310.218 82.9256 310.551C82.3257 310.88 81.5805 311.044 80.6902 311.044C79.8046 311.044 79.0524 310.894 78.4334 310.594C77.8144 310.294 77.3431 309.873 77.0193 309.33C76.6956 308.787 76.5337 308.154 76.5337 307.43ZM77.7978 307.43C77.7978 307.959 77.9692 308.387 78.312 308.716C78.6548 309.04 79.1571 309.23 79.8189 309.287L79.8189 305.688C79.4237 305.693 79.0738 305.759 78.7691 305.888C78.4643 306.012 78.2263 306.202 78.0549 306.459C77.8835 306.711 77.7978 307.035 77.7978 307.43Z" fill="white" fill-opacity="0.957096"/>
<path d="M84.5825 295.48L80.9044 296.48C80.7235 296.528 80.5045 296.585 80.2474 296.652C79.9903 296.718 79.7261 296.785 79.4547 296.852C79.1785 296.918 78.9238 296.98 78.6905 297.037C78.4572 297.09 78.2763 297.13 78.1477 297.159L78.1477 297.216C78.2763 297.24 78.4572 297.278 78.6905 297.33C78.9238 297.382 79.1785 297.442 79.4547 297.509C79.7308 297.575 79.9998 297.642 80.2617 297.709C80.5236 297.771 80.7473 297.828 80.933 297.88L84.5825 298.93L84.5825 300.772L76.6765 302.986L76.6765 301.287L80.6045 300.258C80.8711 300.192 81.1592 300.127 81.4686 300.065C81.7781 299.999 82.0733 299.942 82.3542 299.894C82.6351 299.846 82.8661 299.811 83.047 299.787L83.047 299.73C82.9184 299.711 82.7565 299.685 82.5613 299.651C82.3614 299.618 82.1543 299.58 81.94 299.537C81.721 299.494 81.5163 299.451 81.3258 299.408C81.1306 299.366 80.9735 299.325 80.8545 299.287L76.6765 298.073L76.6765 296.237L80.8545 295.073C81.0354 295.021 81.2639 294.964 81.5401 294.902C81.8115 294.84 82.0852 294.785 82.3614 294.738C82.6328 294.685 82.8589 294.652 83.0398 294.638L83.0398 294.581C82.878 294.561 82.6589 294.528 82.3828 294.481C82.1019 294.428 81.8043 294.369 81.4901 294.302C81.1711 294.235 80.8759 294.166 80.6045 294.095L76.6765 293.045L76.6765 291.374L84.5825 293.602L84.5825 295.48Z" fill="white" fill-opacity="0.937297"/>
</g>
</g>
<defs>
<filter id="filter0_dd_8_896" x="-215.579" y="0.657894" width="412.671" height="564.158" filterUnits="userSpaceOnUse" color-interpolation-filters="sRGB">
<feFlood flood-opacity="0" result="BackgroundImageFix"/>
<feColorMatrix in="SourceAlpha" type="matrix" values="0 0 0 0 0 0 0 0 0 0 0 0 0 0 0 0 0 0 127 0" result="hardAlpha"/>
<feMorphology radius="31.3421" operator="erode" in="SourceAlpha" result="effect1_dropShadow_8_896"/>
<feOffset dy="31.3421"/>
<feGaussianBlur stdDeviation="31.3421"/>
<feComposite in2="hardAlpha" operator="out"/>
<feColorMatrix type="matrix" values="0 0 0 0 0 0 0 0 0 0 0 0 0 0 0 0 0 0 0.3 0"/>
<feBlend mode="normal" in2="BackgroundImageFix" result="effect1_dropShadow_8_896"/>
<feColorMatrix in="SourceAlpha" type="matrix" values="0 0 0 0 0 0 0 0 0 0 0 0 0 0 0 0 0 0 127 0" result="hardAlpha"/>
<feMorphology radius="20.8947" operator="erode" in="SourceAlpha" result="effect2_dropShadow_8_896"/>
<feOffset dy="52.2368"/>
<feGaussianBlur stdDeviation="52.2368"/>
<feComposite in2="hardAlpha" operator="out"/>
<feColorMatrix type="matrix" values="0 0 0 0 0.196078 0 0 0 0 0.196078 0 0 0 0 0.364706 0 0 0 0.25 0"/>
<feBlend mode="normal" in2="effect1_dropShadow_8_896" result="effect2_dropShadow_8_896"/>
<feBlend mode="normal" in="SourceGraphic" in2="effect2_dropShadow_8_896" result="shape"/>
</filter>
<filter id="filter1_d_8_896" x="-48.421" y="330.795" width="49.1026" height="56.4158" filterUnits="userSpaceOnUse" color-interpolation-filters="sRGB">
<feFlood flood-opacity="0" result="BackgroundImageFix"/>
<feColorMatrix in="SourceAlpha" type="matrix" values="0 0 0 0 0 0 0 0 0 0 0 0 0 0 0 0 0 0 127 0" result="hardAlpha"/>
<feOffset dy="1.04474"/>
<feComposite in2="hardAlpha" operator="out"/>
<feColorMatrix type="matrix" values="0 0 0 0 1 0 0 0 0 1 0 0 0 0 1 0 0 0 0.15 0"/>
<feBlend mode="normal" in2="BackgroundImageFix" result="effect1_dropShadow_8_896"/>
<feBlend mode="normal" in="SourceGraphic" in2="effect1_dropShadow_8_896" result="shape"/>
</filter>
<clipPath id="clip0_8_896">
<rect x="-132" y="429" width="397" height="245.513" rx="16.7158" transform="rotate(-90 -132 429)" fill="white"/>
</clipPath>
<clipPath id="clip1_8_896">
<rect width="112.832" height="112.832" fill="white" transform="translate(-65.6591 286.916) rotate(-90)"/>
</clipPath>
<clipPath id="clip2_8_896">
<rect width="87.7579" height="28.2079" fill="white" transform="translate(66.5001 138.563) rotate(-90)"/>
</clipPath>
</defs>
</svg>
